<svg width="512" height="512" viewBox="0 0 512 512" fill="none" xmlns="http://www.w3.org/2000/svg">
<rect width="512" height="512" fill="white" fill-opacity="0.01" style="mix-blend-mode:multiply"/>
<path d="M255.999 136.702C193.318 136.702 125.855 151.485 125.855 183.933V396.475C125.855 428.923 193.318 443.707 255.999 443.707C318.679 443.707 386.142 428.923 386.142 396.475V183.933C386.142 151.485 318.679 136.702 255.999 136.702ZM255.999 160.318C324.591 160.318 360.053 177.251 362.442 183.933C360.053 190.615 324.591 207.549 255.999 207.549C186.889 207.549 151.418 190.362 149.518 184.141V184.083C151.418 177.505 186.889 160.318 255.999 160.318ZM149.518 212.599C174.694 225.203 216.277 231.165 255.999 231.165C295.721 231.165 337.304 225.203 362.48 212.599V254.631C360.58 261.209 325.108 278.396 255.999 278.396C186.785 278.396 151.303 261.157 149.518 254.781V212.599ZM149.518 283.447C174.694 296.05 216.277 302.012 255.999 302.012C295.721 302.012 337.304 296.05 362.48 283.447V325.478C360.58 332.056 325.108 349.244 255.999 349.244C186.785 349.244 151.303 332.004 149.518 325.628V283.447ZM255.999 420.091C186.785 420.091 151.303 402.851 149.518 396.475V354.294C174.694 366.898 216.277 372.859 255.999 372.859C295.721 372.859 337.304 366.898 362.48 354.294V396.325C360.58 402.903 325.108 420.091 255.999 420.091Z" fill="#FC5D0D" stroke="#FC5D0D" stroke-width="6.67402"/>
<path d="M387.86 399.883L374.531 413.211L446.886 485.566H384.052V504.607H479.256V409.403H460.215V472.238L387.86 399.883Z" fill="#FC5D0D" stroke="#FC5D0D" stroke-width="8.34252"/>
<path d="M124.138 399.883L137.467 413.211L65.1116 485.566H127.946V504.607H32.7422V409.403H51.783V472.238L124.138 399.883Z" fill="#FC5D0D" stroke="#FC5D0D" stroke-width="8.34252"/>
<path d="M246.575 146.071H265.425V43.7453L309.856 88.1761L323.319 74.7122L256 7.39282L188.681 74.7122L202.144 88.1761L246.575 43.7453V146.071Z" fill="#FC5D0D" stroke="#FC5D0D" stroke-width="8.34252"/>
</svg>
