<svg width="16" height="16" viewBox="0 0 16 16" fill="none" xmlns="http://www.w3.org/2000/svg">
<path fill-rule="evenodd" clip-rule="evenodd" d="M13.125 3.09381L10.5312 8.03131L13.125 12.9688L14.1875 12.3751V3.68756L13.125 3.09381Z" fill="#E25444"/>
<path fill-rule="evenodd" clip-rule="evenodd" d="M13.125 3.09381L7.9375 3.68756L5.29688 8.03131L7.9375 12.3751L13.125 12.9688V3.09381Z" fill="#7B1D13"/>
<path fill-rule="evenodd" clip-rule="evenodd" d="M2.65625 3.09381L1.8125 3.46881V12.5938L2.65625 12.9688L7.9375 8.03131L2.65625 3.09381Z" fill="#58150D"/>
<path fill-rule="evenodd" clip-rule="evenodd" d="M2.64453 3.08331L7.94413 4.55553V11.6388L2.64453 12.9722V3.08331Z" fill="#E25444"/>
<path fill-rule="evenodd" clip-rule="evenodd" d="M7.94752 5.3335L5.69727 4.97237L7.94752 2.41681L10.1922 4.97237L7.94752 5.3335Z" fill="#58150D"/>
<path fill-rule="evenodd" clip-rule="evenodd" d="M10.1922 4.97237L7.94473 5.33903L5.69727 4.97237V2.41681" fill="#58150D"/>
<path fill-rule="evenodd" clip-rule="evenodd" d="M7.94752 10.6944L5.69727 11.1111L7.94752 13.3055L10.1922 11.1111L7.94752 10.6944Z" fill="#58150D"/>
<path fill-rule="evenodd" clip-rule="evenodd" d="M7.9375 0.500061L5.6875 1.68756V4.96881L7.9445 4.33341L7.9375 0.500061Z" fill="#7B1D13"/>
<path fill-rule="evenodd" clip-rule="evenodd" d="M7.94473 6.13898L5.69727 6.38345V9.65963L7.94473 9.91676V6.13898Z" fill="#7B1D13"/>
<path fill-rule="evenodd" clip-rule="evenodd" d="M7.94473 11.6666L5.69727 11.1031V14.3238L7.94473 15.5V11.6666Z" fill="#7B1D13"/>
<path fill-rule="evenodd" clip-rule="evenodd" d="M10.1918 11.1031L7.94434 11.6668V15.5L10.1918 14.3238V11.1031Z" fill="#E25444"/>
<path fill-rule="evenodd" clip-rule="evenodd" d="M7.94434 6.13898L10.1918 6.38345V9.65963L7.94434 9.91676V6.13898Z" fill="#E25444"/>
<path fill-rule="evenodd" clip-rule="evenodd" d="M7.9375 0.500061L10.1875 1.68756V4.96881L7.9375 4.34381V0.500061Z" fill="#E25444"/>
</svg>
