<svg width="20" height="21" viewBox="0 0 20 21" fill="none" xmlns="http://www.w3.org/2000/svg">
<path d="M9.30254 12.1283L9.28625 12.3047C9.27268 12.454 9.26047 12.6006 9.24283 12.7458C9.23012 12.82 9.20729 12.8922 9.17497 12.9602C9.13019 13.0647 9.04469 13.119 8.93069 13.1326C8.6552 13.1651 8.55884 13.0267 8.5032 12.7933C8.42992 12.4866 8.4367 12.1731 8.45299 11.8596L8.45434 11.8365C8.45405 11.7186 8.47237 11.6013 8.50863 11.4891C8.53206 11.4223 8.56159 11.3578 8.59684 11.2964C8.70948 11.1091 9.03112 11.1268 9.13833 11.2693C9.19119 11.3443 9.2256 11.4308 9.23875 11.5217C9.26047 11.6669 9.27404 11.8135 9.28625 11.9587L9.30254 12.1283ZM10.7804 7.60778C10.699 7.84935 10.6922 8.09905 10.6963 8.36776C10.6881 8.60661 10.7017 8.86039 10.7804 9.10739C10.8157 9.21867 10.8822 9.30553 10.9976 9.32724C11.1292 9.35031 11.2608 9.35438 11.3613 9.23767C11.4471 9.13355 11.4992 9.00573 11.5106 8.87125C11.5568 8.53128 11.5568 8.1866 11.5106 7.84663C11.4977 7.74311 11.4684 7.64231 11.4237 7.54807C11.3898 7.48292 11.326 7.40828 11.2581 7.38657C11.0681 7.32686 10.8619 7.36893 10.7804 7.60778Z" fill="#007FFF"/>
<path fill-rule="evenodd" clip-rule="evenodd" d="M12.4801 6.03632V7.62821H14.0503C14.0503 7.64856 14.053 7.66756 14.0543 7.68521C14.0584 7.72185 14.0611 7.75306 14.0611 7.78563V13.8031C14.0611 13.9157 14.0611 14.027 14.0068 14.1315C13.9119 14.316 13.7734 14.4355 13.559 14.4518L13.5006 14.4558C13.4097 14.4626 13.3188 14.4694 13.2292 14.4694H6.66216C6.56038 14.4694 6.4586 14.4626 6.35953 14.4436C6.24777 14.4204 6.14629 14.3623 6.0697 14.2776C5.99311 14.193 5.94538 14.0862 5.9334 13.9727C5.92886 13.9185 5.92705 13.8642 5.92797 13.8098V6.70266C5.92797 6.56288 5.93475 6.43124 6.01482 6.30503C6.06256 6.23214 6.12595 6.17082 6.20037 6.12551C6.27478 6.0802 6.35836 6.05205 6.44503 6.0431C6.49524 6.03496 6.54817 6.03496 6.59974 6.03632H12.4801ZM7.87542 12.3306L7.86457 12.1759C7.86999 11.9017 7.89306 11.6303 7.98399 11.3711C8.08306 11.0834 8.25677 10.8595 8.57026 10.7658C8.83761 10.6844 9.10089 10.698 9.34924 10.8079C9.43646 10.8445 9.51508 10.8988 9.58005 10.9675C9.64502 11.0363 9.69491 11.1178 9.72652 11.2069C9.87309 11.6235 9.89752 12.0483 9.84866 12.4826C9.8283 12.6658 9.79438 12.8449 9.72652 13.0173C9.67242 13.1707 9.57432 13.3048 9.44447 13.4028C9.31461 13.5008 9.15877 13.5583 8.9964 13.5683C8.84711 13.5846 8.69919 13.5819 8.55533 13.5506C8.44621 13.5269 8.34391 13.4787 8.2562 13.4095C8.1685 13.3404 8.09768 13.2522 8.04913 13.1516C7.97159 12.9989 7.92239 12.8334 7.90392 12.6631C7.89096 12.5526 7.88145 12.4417 7.87542 12.3306ZM12.1137 8.16427L12.1313 8.32441C12.1178 8.60397 12.0893 8.87675 12.001 9.14139C11.8993 9.44674 11.7106 9.67202 11.3863 9.74666C11.0701 9.81859 10.7566 9.80637 10.4824 9.59738C10.3462 9.48441 10.2516 9.32917 10.2137 9.15631C10.1137 8.76179 10.0911 8.35161 10.1472 7.94849C10.1611 7.7131 10.237 7.48557 10.3671 7.28893C10.4474 7.17748 10.5524 7.08616 10.6739 7.02211C10.7954 6.95806 10.93 6.92304 11.0673 6.9198C11.2438 6.90894 11.4148 6.93472 11.5763 7.00122C11.6767 7.04194 11.7635 7.10572 11.8341 7.19393C11.9861 7.38393 12.0594 7.60107 12.0784 7.83992C12.0879 7.94849 12.1015 8.05705 12.1137 8.16427ZM12.0363 13.2561C12.0472 13.3517 12.0246 13.4481 11.9725 13.5289L11.94 13.5316C11.9128 13.533 11.883 13.5357 11.8531 13.5357H11.4297C11.1176 13.5344 10.8054 13.533 10.4919 13.5384C10.3562 13.5398 10.3169 13.4896 10.3169 13.3701V13.3199V13.2304C10.3236 13.1435 10.3549 13.1136 10.4458 13.1109C10.5245 13.1082 10.6032 13.1082 10.6819 13.1096H10.8964C10.9262 13.0064 10.9357 11.5082 10.9099 11.3182C10.8987 11.3229 10.8874 11.3274 10.876 11.3318C10.8521 11.3387 10.829 11.3477 10.8068 11.3589L10.6819 11.4335C10.6276 11.4661 10.5706 11.5 10.5136 11.5313C10.4795 11.5479 10.4428 11.5589 10.4051 11.5638C10.3549 11.5706 10.3196 11.5503 10.3169 11.4973C10.3128 11.4178 10.3133 11.338 10.3182 11.2585C10.3209 11.2313 10.344 11.1974 10.3684 11.1771C10.4091 11.1431 10.4553 11.1146 10.5014 11.0848L10.5231 11.0712L10.6494 10.9911C10.7281 10.9423 10.8081 10.8948 10.8828 10.8405C10.9806 10.773 11.0979 10.7397 11.2166 10.7455C11.2736 10.7455 11.3293 10.7536 11.3903 10.7604L11.4826 10.7713V13.0974L11.5505 13.1028L11.659 13.1096H11.8884C11.9943 13.1137 12.0295 13.1503 12.0377 13.2561H12.0363ZM9.24068 6.96594V9.30967L9.24203 9.31103H9.62202C9.74688 9.31103 9.77131 9.33138 9.77809 9.45488C9.77955 9.52581 9.7741 9.59672 9.76181 9.66659C9.75502 9.71409 9.72109 9.73852 9.67088 9.73716H8.25948C8.11699 9.73716 8.10342 9.72359 8.08849 9.58245C8.0866 9.56984 8.08524 9.55717 8.08442 9.54445C8.07492 9.3341 8.09799 9.30967 8.30563 9.30967H8.58519C8.66662 9.30695 8.67883 9.2961 8.68019 9.21196V8.90389V7.52371L8.64355 7.53185C8.62251 7.53761 8.60206 7.54533 8.58248 7.55492C8.53563 7.58026 8.48904 7.60604 8.44269 7.63228C8.38307 7.66628 8.3229 7.69931 8.2622 7.73135C8.23234 7.74763 8.19841 7.75713 8.16449 7.76663L8.1197 7.7802C8.07037 7.67794 8.05976 7.56127 8.08985 7.45178C8.10082 7.41214 8.1253 7.37758 8.15906 7.35407C8.33955 7.23193 8.52141 7.11115 8.70869 6.99715C8.74589 6.97765 8.78638 6.96523 8.82811 6.96051C8.83991 6.95842 8.85167 6.95616 8.8634 6.95372C8.93804 6.9388 9.00861 6.94694 9.08325 6.95372C9.13346 6.96051 9.18503 6.96865 9.24068 6.96594Z" fill="#007FFF"/>
<path fill-rule="evenodd" clip-rule="evenodd" d="M19.2951 10.6016L19.5 10.2555L19.4226 10.1198L19.2123 9.7561L19.0671 9.51046C18.8961 9.21694 18.726 8.9229 18.5568 8.62834C18.2535 8.09962 17.9472 7.5726 17.638 7.04731L17.4331 6.7026L17.1278 6.18418C17.0192 5.99962 16.9133 5.81369 16.8061 5.62777L16.5944 5.26135C16.2891 4.73348 15.9814 4.20691 15.6716 3.68167L15.5182 3.42382L15.4029 3.22975L15.1722 2.84162L15.1477 2.79819C15.0286 2.59647 14.9119 2.39334 14.7976 2.18885C14.7637 2.12914 14.7243 2.10335 14.6565 2.11014C14.6267 2.11279 14.5967 2.11279 14.5669 2.11014H7.55471C6.82187 2.11014 6.08903 2.11014 5.35619 2.10742C5.26255 2.10742 5.21369 2.13864 5.16891 2.2187C4.9477 2.61227 4.72106 3.00176 4.49442 3.39261L4.38178 3.58803L3.85251 4.49729L3.59195 4.93836C3.22786 5.55233 2.86822 6.16893 2.51304 6.7881L2.24298 7.25494C2.07744 7.54011 1.91006 7.82421 1.74085 8.10721L1.52099 8.48041L1.3025 8.85362L1.15729 9.0979L0.92658 9.48875C0.790869 9.71946 0.656515 9.95152 0.523518 10.1836C0.49909 10.2243 0.488233 10.2623 0.51809 10.3112C0.575088 10.4062 0.629373 10.5012 0.683657 10.5962L0.801726 10.7997L0.97815 11.0956C1.06093 11.234 1.14372 11.3711 1.22379 11.5095C1.31607 11.6683 1.40564 11.8284 1.49657 11.9885C1.60514 12.1826 1.7137 12.3753 1.82634 12.5667L2.23755 13.2588L2.52933 13.7514L2.74239 14.1192C2.87643 14.3532 3.01214 14.5861 3.14953 14.8181L3.40466 15.2565L4.06558 16.3924L4.22436 16.6679C4.30579 16.8117 4.38857 16.9556 4.47271 17.0981L4.71021 17.4998C4.85813 17.7508 5.00606 18.0019 5.15127 18.2543C5.20691 18.352 5.26662 18.3928 5.38605 18.3928C7.40814 18.3887 9.42888 18.39 11.4496 18.39H14.6361C14.7148 18.39 14.7637 18.3738 14.8071 18.2978C15.0663 17.8363 15.3337 17.3763 15.601 16.9189C15.7245 16.7045 15.8507 16.4914 15.9769 16.2784L16.3257 15.6867L16.7871 14.8914L17.1916 14.1911C17.5092 13.6462 17.8304 13.1034 18.1551 12.5626C18.2528 12.397 18.3465 12.2301 18.4415 12.0632C18.5446 11.8813 18.6477 11.6995 18.7536 11.5203C18.9327 11.2136 19.1132 10.9083 19.2951 10.6016ZM5.21912 13.7976V6.71481C5.21912 6.53432 5.23269 6.35789 5.29648 6.18554C5.39293 5.92355 5.57266 5.70043 5.80811 5.55041C6.04967 5.39299 6.31838 5.33599 6.60337 5.33599H7.70399C9.3556 5.33599 11.0072 5.33599 12.6574 5.33327C12.7647 5.33327 12.8312 5.37263 12.8977 5.44184C12.975 5.52327 13.0551 5.60063 13.1352 5.67934L13.2641 5.80555L13.393 5.93583C13.4676 6.01183 13.5423 6.08783 13.6196 6.16111L14.0091 6.53703L14.3986 6.91295L14.5506 7.0663L14.7175 7.23323C14.7583 7.27123 14.7691 7.31466 14.7691 7.36623V13.7881C14.7691 13.8369 14.7691 13.8858 14.7664 13.9333C14.7582 14.1536 14.6922 14.3679 14.575 14.5547C14.4578 14.7414 14.2935 14.8941 14.0987 14.9973C13.878 15.1154 13.6295 15.1717 13.3794 15.1601H6.58845C6.40211 15.1691 6.21593 15.1395 6.04153 15.0733C5.78764 14.9744 5.57151 14.7977 5.42405 14.5686C5.27659 14.3395 5.20398 14.0696 5.21912 13.7976Z" fill="#007FFF"/>
</svg>
