<svg width="20" height="20" viewBox="0 0 20 20" fill="none" xmlns="http://www.w3.org/2000/svg">
    <g style="mix-blend-mode:multiply">
        <path d="M19.1789 0H0V19.1789H19.1789V0Z" fill="white" fill-opacity="0.01"/>
    </g>
    <path d="M10.1879 8.9901V5.39407H5.39318V13.7848H13.7839V8.9901H10.1879ZM6.59186 6.59274H8.98921V8.9901H6.59186V6.59274ZM8.98921 12.5861H6.59186V10.1888H8.98921V12.5861ZM12.5852 12.5861H10.1879V10.1888H12.5852V12.5861Z" fill="#FC5D0D"/>
    <path d="M15.5819 16.7815H3.59516C3.27737 16.7811 2.97269 16.6547 2.74797 16.43C2.52326 16.2053 2.39685 15.9006 2.39648 15.5828V3.59605C2.39685 3.27825 2.52326 2.97357 2.74797 2.74886C2.97269 2.52414 3.27737 2.39773 3.59516 2.39737H9.58855V3.59605H3.59516V15.5828H15.5819V9.58944H16.7806V15.5828C16.7803 15.9006 16.6539 16.2053 16.4291 16.43C16.2044 16.6547 15.8997 16.7811 15.5819 16.7815Z" fill="#161616"/>
    <path d="M17 7.5H12V6.5H17V7.5Z" fill="#FC5D0D"/>
    <path d="M17 5.5H12V4.5H17V5.5Z" fill="#FC5D0D"/>
    <path d="M17 3.5H15H12V2.5H17V3.5Z" fill="#FC5D0D"/>
</svg>
