<svg width="20" height="20" viewBox="0 0 20 20" fill="none" xmlns="http://www.w3.org/2000/svg">
    <g clip-path="url(#clip0_1_71)">
        <g style="mix-blend-mode:multiply">
            <path d="M19.1789 0H0V19.1789H19.1789V0Z" fill="white" fill-opacity="0.01"/>
        </g>
        <path d="M10.1879 8.9901V5.39407H5.39318V13.7848H13.7839V8.9901H10.1879ZM6.59186 6.59274H8.98921V8.9901H6.59186V6.59274ZM8.98921 12.5861H6.59186V10.1888H8.98921V12.5861ZM12.5852 12.5861H10.1879V10.1888H12.5852V12.5861Z" fill="#FC5D0D"/>
        <path d="M15.5819 16.7815H3.59516C3.27737 16.7811 2.97269 16.6547 2.74797 16.43C2.52326 16.2053 2.39685 15.9006 2.39648 15.5828V3.59605C2.39685 3.27825 2.52326 2.97357 2.74797 2.74886C2.97269 2.52414 3.27737 2.39773 3.59516 2.39737H9.58855V3.59605H3.59516V15.5828H15.5819V9.58944H16.7806V15.5828C16.7803 15.9006 16.6539 16.2053 16.4291 16.43C16.2044 16.6547 15.8997 16.7811 15.5819 16.7815Z" fill="#161616"/>
        <path d="M16.5263 5.05263C16.3868 5.05263 16.2592 5.13147 16.1968 5.25626L15.8834 5.88302L15.2563 6.19676C15.1315 6.25917 15.0526 6.38676 15.0526 6.52632C15.0526 6.66587 15.1315 6.79346 15.2563 6.85587L15.8834 7.16925L16.1968 7.79637C16.2592 7.92116 16.3868 8 16.5263 8C16.6659 8 16.7935 7.92116 16.8559 7.79637L17.1696 7.16925L17.7964 6.85587C17.9212 6.79346 18 6.66587 18 6.52632C18 6.38676 17.9212 6.25917 17.7964 6.19676L17.1696 5.88302L16.8559 5.25626L16.8296 5.21164C16.7615 5.11294 16.6484 5.05263 16.5263 5.05263ZM13.0263 2.28947C12.8868 2.28947 12.7592 2.3683 12.6968 2.49311L12.1992 3.48828L11.2036 3.98624C11.0788 4.04865 11 4.17623 11 4.31579C11 4.45535 11.0788 4.58293 11.2036 4.64534L12.1992 5.14293L12.6968 6.13848C12.7592 6.26326 12.8868 6.34211 13.0263 6.34211C13.1659 6.34211 13.2935 6.26326 13.3559 6.13848L13.8538 5.14293L14.849 4.64534C14.9738 4.58293 15.0526 4.45535 15.0526 4.31579C15.0526 4.17623 14.9738 4.04865 14.849 3.98624L13.8538 3.48828L13.3559 2.49311L13.3296 2.4485C13.2615 2.34977 13.1484 2.28947 13.0263 2.28947ZM16.5263 1C16.3868 1 16.2592 1.07882 16.1968 1.20364L15.8834 1.83039L15.2563 2.14412C15.1315 2.20653 15.0526 2.33414 15.0526 2.47368C15.0526 2.61323 15.1315 2.74084 15.2563 2.80325L15.8834 3.11662L16.1968 3.74373C16.2592 3.86853 16.3868 3.94737 16.5263 3.94737C16.6659 3.94737 16.7935 3.86853 16.8559 3.74373L17.1696 3.11662L17.7964 2.80325C17.9212 2.74084 18 2.61323 18 2.47368C18 2.33414 17.9212 2.20653 17.7964 2.14412L17.1696 1.83039L16.8559 1.20364L16.8296 1.15903C16.7615 1.0603 16.6484 1 16.5263 1Z" fill="#FC5D0D"/>
    </g>
    <defs>
        <clipPath id="clip0_1_71">
            <rect width="20" height="20" fill="white"/>
        </clipPath>
    </defs>
</svg>
