<svg width="16" height="16" viewBox="0 0 16 16" fill="none" xmlns="http://www.w3.org/2000/svg">
<g clip-path="url(#clip0_90_2420)">
<path d="M8.33835 9.95365L10.3894 12.0104L8.33262 14.0672L9.14616 14.875L12.0107 12.0104L9.14616 9.14583L8.33835 9.95365Z" fill="black"/>
<path d="M12.3488 9.95365L14.3998 12.0104L12.343 14.0672L13.1566 14.875L16.0212 12.0104L13.1566 9.14583L12.3488 9.95365Z" fill="black"/>
<path d="M3.972 11.4375H1.12533V2.79219L7.67376 7.32396C7.76967 7.39049 7.8836 7.42614 8.00032 7.42614C8.11705 7.42614 8.23098 7.39049 8.32689 7.32396L14.8753 2.79219V8H16.0212V2.27083C16.0212 1.96694 15.9004 1.67549 15.6856 1.46061C15.4707 1.24572 15.1792 1.125 14.8753 1.125H1.12533C0.821432 1.125 0.529984 1.24572 0.315099 1.46061C0.100214 1.67549 -0.0205078 1.96694 -0.0205078 2.27083V11.4375C-0.0205078 11.7414 0.100214 12.0328 0.315099 12.2477C0.529984 12.4626 0.821432 12.5833 1.12533 12.5833H3.972V11.4375ZM13.6149 2.27083L8.00032 6.15521L2.38574 2.27083H13.6149Z" fill="#FC5D0D"/>
<path d="M4.2821 9.95365L6.33314 12.0104L4.27637 14.0672L5.08991 14.875L7.95449 12.0104L5.08991 9.14583L4.2821 9.95365Z" fill="black"/>
</g>
<defs>
<clipPath id="clip0_90_2420">
<rect width="16" height="16" fill="white"/>
</clipPath>
</defs>
</svg>
