<svg xmlns="http://www.w3.org/2000/svg" width="513" height="512" fill="none" viewBox="0 0 513 512">
  <g clip-path="url(#a)">
    <path fill="#000" d="M422.069 416.995V253.044h-24.756V444.32h99.024v-27.325h-74.268Zm-74.268-163.951h-49.512c-6.565 0-12.862 2.879-17.505 8.004-4.643 5.124-7.251 12.074-7.251 19.322v136.625c0 7.247 2.608 14.197 7.251 19.321 4.643 5.125 10.94 8.004 17.505 8.004h12.378v27.325c0 7.247 2.608 14.197 7.251 19.321 4.643 5.125 10.94 8.004 17.505 8.004h24.756v-27.325h-24.756V444.32h12.378c6.566 0 12.863-2.879 17.505-8.004 4.643-5.124 7.251-12.074 7.251-19.321V280.37c0-7.248-2.608-14.198-7.251-19.322-4.642-5.125-10.939-8.004-17.505-8.004Zm-49.512 163.951V280.37h49.512v136.625h-49.512Zm-74.268 27.325h-74.268v-27.325h74.268v-54.65h-49.512c-6.566 0-12.862-2.879-17.505-8.004-4.643-5.124-7.251-12.074-7.251-19.321v-54.65c0-7.248 2.608-14.198 7.251-19.322 4.643-5.125 10.939-8.004 17.505-8.004h74.268v27.326h-74.268v54.65h49.512c6.566 0 12.863 2.878 17.505 8.003 4.643 5.124 7.251 12.075 7.251 19.322v54.65c0 7.247-2.608 14.197-7.251 19.321-4.642 5.125-10.939 8.004-17.505 8.004Z"/>
    <path fill="#C629CD" d="M160.695 13.032c-63.066 0-130.943 16.45-130.943 52.557v236.506c0 22.07 25.403 36.762 59.52 44.87v-26.882c-23.736-6.21-35.06-15.019-35.712-17.988v-46.938c17.78 9.842 17.733 9.185 45.424 12.009v-26.247c-46.162-4.959-43.965-11.899-45.424-17.661v-46.937c25.33 14.025 67.169 20.659 107.135 20.659 63.066 0 130.943-16.451 130.943-52.557v-78.84c-.009-36.107-67.881-52.55-130.943-52.55ZM53.542 65.787c1.813-7.295 37.514-26.477 107.153-26.477 69.014 0 104.694 18.843 107.097 26.279-2.403 7.435-38.083 26.278-107.097 26.278-69.639 0-105.339-19.183-107.153-26.08Zm214.288 78.47c-1.912 7.32-37.601 26.446-107.135 26.446-69.639 0-105.339-19.184-107.135-26.279V97.487c25.33 14.025 67.169 20.659 107.135 20.659 39.966 0 81.805-6.634 107.135-20.659v46.77Z"/>
  </g>
  <defs>
    <clipPath id="a">
      <path fill="#fff" d="M29.754 6h452.991v500H29.754z"/>
    </clipPath>
  </defs>
</svg>
