<svg width="16" height="16" viewBox="0 0 16 16" fill="none" xmlns="http://www.w3.org/2000/svg">
<path d="M15.6929 11.2002C15.888 11.4734 15.849 11.8246 15.6148 12.0197C15.3417 12.2148 14.9514 12.1758 14.7563 11.9417L13.3904 10.1856L12.0636 11.9026C11.8685 12.1758 11.4782 12.1758 11.2051 11.9807C10.9319 11.7856 10.8929 11.4343 11.088 11.1612L12.649 9.13191L11.088 7.10264C10.8929 6.82947 10.9709 6.43923 11.2051 6.2441C11.4782 6.04898 11.8685 6.12703 12.0636 6.36118L13.3904 8.11728L14.7563 6.43923C14.9514 6.16606 15.3026 6.12703 15.6148 6.32215C15.888 6.51728 15.888 6.90752 15.6929 7.18069L14.1709 9.17093L15.6929 11.2002ZM8.59044 10.9661C7.5758 10.9661 6.75629 10.1856 6.75629 9.17093C6.75629 8.19532 7.5758 7.37581 8.59044 7.37581C9.60507 7.37581 10.4246 8.19532 10.4246 9.17093C10.3856 10.1856 9.56605 10.9661 8.59044 10.9661ZM3.20507 10.9661C2.19044 10.9661 1.37093 10.1856 1.37093 9.17093C1.37093 8.19532 2.19044 7.37581 3.20507 7.37581C4.21971 7.37581 5.03922 8.19532 5.03922 9.17093C5.03922 10.1856 4.21971 10.9661 3.20507 10.9661ZM8.59044 6.20508C7.45873 6.20508 6.4441 6.82947 5.93678 7.76606C5.42946 6.82947 4.41483 6.20508 3.2441 6.20508C2.54166 6.20508 1.91727 6.43923 1.40995 6.79045V4.29289C1.40995 3.98069 1.13678 3.70752 0.824586 3.70752C0.473366 3.70752 0.200195 3.98069 0.200195 4.29289V9.20996C0.23922 10.849 1.56605 12.1368 3.20507 12.1368C4.3758 12.1368 5.39044 11.4734 5.89776 10.5368C6.40507 11.4734 7.41971 12.1368 8.55141 12.1368C10.2295 12.1368 11.5953 10.81 11.5953 9.13191C11.6343 7.53191 10.2685 6.20508 8.59044 6.20508Z" fill="#0071F7"/>
</svg>
