<svg width="21" height="22" viewBox="0 0 21 22" fill="none" xmlns="http://www.w3.org/2000/svg">
    <path d="M0.5 3C0.5 1.89543 1.39543 1 2.5 1H18.5C19.6046 1 20.5 1.89543 20.5 3V19C20.5 20.1046 19.6046 21 18.5 21H2.5C1.39543 21 0.5 20.1046 0.5 19V3Z" fill="#FFB7C8" stroke="black" stroke-linejoin="round"/>
    <path d="M16.0479 14.2644C15.8389 14.2644 15.6683 14.2203 15.5362 14.1323C15.4097 14.0443 15.3024 13.904 15.2144 13.7114L13.2171 9.30424C13.1291 9.11167 13.1016 8.93835 13.1346 8.7843C13.1676 8.63024 13.2446 8.51194 13.3657 8.42941C13.4867 8.34138 13.638 8.29736 13.8196 8.29736C14.0452 8.29736 14.213 8.34688 14.323 8.44592C14.4386 8.54496 14.5376 8.69076 14.6202 8.88333L16.3038 12.7788H15.8416L17.5252 8.87508C17.6078 8.68251 17.7068 8.53945 17.8224 8.44592C17.9379 8.34688 18.1002 8.29736 18.3093 8.29736C18.4799 8.29736 18.6229 8.34138 18.7385 8.42941C18.854 8.51194 18.9255 8.63024 18.953 8.7843C18.986 8.93835 18.9585 9.11167 18.8705 9.30424L16.865 13.7114C16.7825 13.904 16.6779 14.0443 16.5514 14.1323C16.4248 14.2203 16.257 14.2644 16.0479 14.2644Z" fill="black"/>
    <path d="M10.2272 14.2808C10.0071 14.2808 9.77604 14.2643 9.53395 14.2312C9.29736 14.2037 9.07178 14.1597 8.8572 14.0992C8.64262 14.0387 8.45004 13.9671 8.27948 13.8846C8.13092 13.8131 8.02638 13.7196 7.96586 13.604C7.90534 13.483 7.88333 13.3564 7.89984 13.2244C7.91634 13.0923 7.96311 12.9768 8.04014 12.8777C8.11717 12.7732 8.21896 12.7044 8.3455 12.6714C8.47205 12.6329 8.61511 12.6494 8.77467 12.7209C8.98374 12.82 9.22033 12.897 9.48443 12.952C9.74853 13.007 9.99612 13.0345 10.2272 13.0345C10.5903 13.0345 10.8434 12.9878 10.9865 12.8942C11.1351 12.7952 11.2093 12.6742 11.2093 12.5311C11.2093 12.4046 11.1571 12.3028 11.0525 12.2257C10.9535 12.1487 10.7747 12.0827 10.5161 12.0277L9.55046 11.8213C9.02226 11.7113 8.62886 11.5187 8.37026 11.2436C8.11167 10.9685 7.98237 10.6136 7.98237 10.179C7.98237 9.89287 8.04014 9.63427 8.15568 9.40318C8.27673 9.16659 8.44454 8.96577 8.65912 8.80071C8.8792 8.63564 9.1378 8.5091 9.43491 8.42106C9.73753 8.32753 10.0732 8.28076 10.4418 8.28076C10.7279 8.28076 11.0168 8.31377 11.3084 8.3798C11.6055 8.44032 11.8613 8.53386 12.0759 8.6604C12.2025 8.72643 12.2932 8.81721 12.3483 8.93276C12.4033 9.0483 12.4253 9.16934 12.4143 9.29589C12.4033 9.41694 12.3593 9.52423 12.2822 9.61776C12.2107 9.7113 12.1117 9.77457 11.9851 9.80758C11.8641 9.83509 11.7183 9.81309 11.5477 9.74156C11.3881 9.67003 11.2066 9.61776 11.003 9.58475C10.8049 9.54624 10.6124 9.52698 10.4253 9.52698C10.2217 9.52698 10.0484 9.55174 9.90534 9.60126C9.76229 9.64527 9.65224 9.7113 9.57522 9.79933C9.50369 9.88736 9.46793 9.98915 9.46793 10.1047C9.46793 10.2202 9.51469 10.3193 9.60823 10.4018C9.70726 10.4788 9.88608 10.5449 10.1447 10.5999L11.102 10.8062C11.6357 10.9218 12.0346 11.1116 12.2987 11.3757C12.5628 11.6398 12.6949 11.9837 12.6949 12.4073C12.6949 12.6934 12.6371 12.952 12.5216 13.1831C12.406 13.4142 12.241 13.6123 12.0264 13.7773C11.8118 13.9369 11.5532 14.0607 11.2506 14.1487C10.948 14.2367 10.6069 14.2808 10.2272 14.2808Z" fill="black"/>
    <path d="M5.28783 14.2808C4.64409 14.2808 4.09113 14.157 3.62896 13.9094C3.16678 13.6618 2.8119 13.3124 2.56431 12.8612C2.32222 12.4101 2.20117 11.8819 2.20117 11.2766C2.20117 10.8255 2.26995 10.4156 2.4075 10.0469C2.55055 9.67829 2.75413 9.36192 3.01823 9.09782C3.28783 8.83372 3.61245 8.63289 3.99209 8.49534C4.37724 8.35229 4.80915 8.28076 5.28783 8.28076C5.54092 8.28076 5.80227 8.31102 6.07187 8.37155C6.34698 8.42657 6.58907 8.51185 6.79815 8.62739C6.9522 8.70992 7.05949 8.81446 7.12002 8.94101C7.18054 9.06756 7.1998 9.19686 7.17779 9.3289C7.16128 9.46095 7.11451 9.57925 7.03749 9.68379C6.96046 9.78833 6.86142 9.85985 6.74037 9.89837C6.61933 9.93138 6.48728 9.91212 6.34423 9.8406C6.17916 9.76357 6.0141 9.7058 5.84904 9.66728C5.68948 9.62327 5.52167 9.60126 5.3456 9.60126C5.00447 9.60126 4.71837 9.66728 4.48728 9.79933C4.26169 9.92588 4.09113 10.1129 3.97559 10.3605C3.86004 10.6081 3.80227 10.9135 3.80227 11.2766C3.80227 11.6398 3.86004 11.9479 3.97559 12.201C4.09113 12.4486 4.26169 12.6384 4.48728 12.7704C4.71837 12.897 5.00447 12.9603 5.3456 12.9603C5.48865 12.9603 5.64271 12.9438 5.80777 12.9107C5.97284 12.8722 6.13515 12.8145 6.29471 12.7374C6.45977 12.6659 6.60557 12.6466 6.73212 12.6797C6.86417 12.7127 6.96871 12.7787 7.04574 12.8777C7.12827 12.9768 7.18054 13.0923 7.20255 13.2244C7.22456 13.3509 7.2053 13.4775 7.14478 13.604C7.08976 13.7306 6.99072 13.8323 6.84766 13.9094C6.65509 14.0249 6.41575 14.1157 6.12965 14.1817C5.84904 14.2477 5.56843 14.2808 5.28783 14.2808Z" fill="black"/>
</svg>
