<svg width="18" height="18" viewBox="0 0 18 18" fill="none" xmlns="http://www.w3.org/2000/svg">
  <path d="M17.0335 8.99997C17.0335 13.4475 13.4281 17.0529 8.98065 17.0529C4.53316 17.0529 0.927765 13.4475 0.927765 8.99997C0.927765 4.55248 4.53316 0.947083 8.98065 0.947083C13.4281 0.947083 17.0335 4.55248 17.0335 8.99997Z" fill="#505562"/>
  <path d="M4.93126 14.1571L6.78106 3.71471H10.1375C11.1917 3.71471 11.9824 3.98323 12.5095 4.52027C13.0465 5.04736 13.315 5.73358 13.315 6.57892C13.315 7.44414 13.0714 8.15522 12.5841 8.71215C12.1067 9.25913 11.4553 9.63705 10.6298 9.8459L12.0619 14.1571H10.3315L9.03364 10.0249H7.24351L6.51254 14.1571H4.93126ZM7.49711 8.59281H9.24248C9.99832 8.59281 10.5901 8.42374 11.0177 8.08561C11.4553 7.73753 11.6741 7.26513 11.6741 6.66842C11.6741 6.19106 11.5249 5.81811 11.2265 5.54959C10.9282 5.27113 10.4558 5.1319 9.80936 5.1319H8.10874L7.49711 8.59281Z" fill="white"/>
</svg>
