<?xml version="1.0" encoding="UTF-8"?>
<svg xmlns="http://www.w3.org/2000/svg" width="23px" height="23px" viewBox="0 0 18 22" version="1.1">
<g id="surface1">
<path style=" stroke:none;fill-rule:nonzero;fill:rgb(0%,0%,0%);fill-opacity:1;" d="M 6.460938 0.863281 C 5.761719 0.984375 5.296875 1.214844 4.824219 1.683594 C 4.402344 2.101562 4.152344 2.570312 4.0625 3.113281 C 4.015625 3.367188 4.027344 3.863281 4.082031 4.109375 C 4.257812 4.882812 4.730469 5.511719 5.433594 5.902344 C 6.542969 6.519531 7.957031 6.3125 8.847656 5.40625 C 9.339844 4.90625 9.601562 4.261719 9.601562 3.5625 C 9.601562 2.765625 9.277344 2.070312 8.65625 1.542969 C 8.21875 1.167969 7.792969 0.972656 7.203125 0.875 C 6.898438 0.824219 6.703125 0.820312 6.460938 0.863281 Z M 7.351562 1.886719 C 7.839844 2.046875 8.199219 2.339844 8.410156 2.75 C 8.519531 2.96875 8.5625 3.117188 8.59375 3.386719 C 8.683594 4.253906 8.164062 5.011719 7.3125 5.234375 C 7.0625 5.300781 6.550781 5.300781 6.3125 5.234375 C 5.476562 5 4.96875 4.292969 5.019531 3.425781 C 5.058594 2.769531 5.421875 2.261719 6.050781 1.980469 C 6.355469 1.847656 6.5625 1.804688 6.898438 1.8125 C 7.109375 1.820312 7.175781 1.832031 7.351562 1.886719 Z M 7.351562 1.886719 "/>
<path style=" stroke:none;fill-rule:nonzero;fill:rgb(0%,0%,0%);fill-opacity:1;" d="M 6.546875 2.199219 C 5.925781 2.28125 5.402344 2.886719 5.398438 3.523438 C 5.398438 3.691406 5.433594 3.769531 5.5625 3.878906 C 5.652344 3.957031 5.816406 4.027344 5.910156 4.027344 C 5.992188 4.027344 6.117188 3.96875 6.195312 3.894531 C 6.261719 3.832031 6.289062 3.777344 6.335938 3.632812 C 6.449219 3.265625 6.527344 3.191406 6.910156 3.089844 C 7.097656 3.039062 7.160156 2.992188 7.230469 2.859375 C 7.292969 2.734375 7.304688 2.554688 7.253906 2.441406 C 7.21875 2.359375 7.125 2.273438 7.027344 2.234375 C 6.929688 2.195312 6.703125 2.179688 6.546875 2.199219 Z M 6.546875 2.199219 "/>
<path style=" stroke:none;fill-rule:nonzero;fill:rgb(0%,0%,0%);fill-opacity:1;" d="M 3.074219 5.925781 C 2.789062 5.984375 2.496094 6.152344 2.269531 6.386719 C 2.035156 6.632812 1.910156 6.878906 1.863281 7.21875 C 1.835938 7.414062 1.847656 7.558594 1.910156 7.78125 C 2.019531 8.1875 2.320312 8.542969 2.699219 8.722656 C 2.96875 8.851562 3.171875 8.890625 3.46875 8.878906 C 3.875 8.863281 4.222656 8.703125 4.507812 8.402344 C 4.667969 8.234375 4.824219 7.957031 4.878906 7.730469 C 4.949219 7.4375 4.914062 7.066406 4.792969 6.800781 C 4.722656 6.648438 4.566406 6.421875 4.449219 6.304688 C 4.152344 6.003906 3.523438 5.828125 3.074219 5.925781 Z M 3.542969 6.882812 C 3.804688 6.984375 3.949219 7.160156 3.953125 7.386719 C 3.953125 7.625 3.808594 7.824219 3.578125 7.898438 C 3.113281 8.046875 2.671875 7.59375 2.882812 7.183594 C 2.96875 7.019531 3.222656 6.828125 3.359375 6.828125 C 3.386719 6.828125 3.46875 6.851562 3.542969 6.882812 Z M 3.542969 6.882812 "/>
<path style=" stroke:none;fill-rule:nonzero;fill:rgb(0%,0%,0%);fill-opacity:1;" d="M 9.769531 6.671875 C 8.953125 6.773438 8.21875 7.074219 7.574219 7.570312 C 7.164062 7.890625 6.898438 8.160156 6.441406 8.738281 C 5.777344 9.570312 5.449219 9.847656 4.554688 10.316406 C 3.621094 10.804688 2.976562 11.203125 2.445312 11.621094 C 2.027344 11.953125 1.902344 12.109375 1.621094 12.660156 L 1.433594 13.015625 L 1.441406 15.242188 C 1.449219 16.804688 1.460938 17.503906 1.476562 17.589844 C 1.636719 18.386719 2.453125 19.363281 3.417969 19.914062 C 4.238281 20.382812 5.484375 20.832031 6.503906 21.03125 C 7.484375 21.222656 8.921875 21.214844 9.652344 21.015625 C 10.664062 20.734375 11.359375 20.160156 12.085938 19 C 12.570312 18.230469 12.988281 17.746094 13.511719 17.371094 C 13.617188 17.292969 13.964844 17.078125 14.28125 16.894531 C 14.988281 16.480469 15.257812 16.3125 15.488281 16.121094 C 15.902344 15.78125 16.269531 15.226562 16.453125 14.667969 C 16.558594 14.347656 16.570312 14.078125 16.558594 12.089844 C 16.546875 10.308594 16.535156 10.054688 16.453125 9.800781 C 16.3125 9.347656 15.976562 8.867188 15.519531 8.460938 C 14.589844 7.636719 12.902344 6.933594 11.3125 6.703125 C 10.933594 6.644531 10.097656 6.632812 9.769531 6.671875 Z M 10.636719 7.597656 C 11.308594 7.632812 11.804688 7.726562 12.503906 7.949219 C 13.53125 8.273438 14.433594 8.753906 14.964844 9.253906 C 15.273438 9.546875 15.421875 9.777344 15.515625 10.117188 C 15.582031 10.351562 15.582031 10.8125 15.519531 11.046875 C 15.382812 11.527344 15.144531 11.847656 14.640625 12.21875 C 14.453125 12.359375 14.328125 12.4375 13.886719 12.679688 C 12.65625 13.359375 12.027344 13.933594 11.378906 14.964844 C 10.964844 15.617188 10.628906 16.039062 10.316406 16.292969 C 9.914062 16.621094 9.644531 16.734375 9.039062 16.824219 C 8.742188 16.867188 7.695312 16.886719 7.332031 16.855469 C 6.082031 16.746094 4.511719 16.1875 3.523438 15.507812 C 3.292969 15.347656 2.941406 15.007812 2.808594 14.8125 C 2.664062 14.605469 2.546875 14.363281 2.472656 14.125 C 2.417969 13.957031 2.414062 13.90625 2.414062 13.625 C 2.414062 13.34375 2.417969 13.300781 2.472656 13.144531 C 2.570312 12.851562 2.792969 12.570312 3.148438 12.285156 C 3.5625 11.953125 3.929688 11.726562 4.84375 11.246094 C 6.097656 10.578125 6.410156 10.328125 7.097656 9.464844 C 7.585938 8.84375 7.90625 8.519531 8.289062 8.238281 C 8.808594 7.863281 9.476562 7.625 10.113281 7.589844 C 10.179688 7.585938 10.242188 7.582031 10.253906 7.578125 C 10.265625 7.578125 10.4375 7.585938 10.636719 7.597656 Z M 15.609375 13.320312 C 15.609375 13.738281 15.601562 13.902344 15.570312 14.082031 C 15.457031 14.753906 15.1875 15.179688 14.636719 15.566406 C 14.433594 15.710938 14.351562 15.761719 13.875 16.023438 C 12.703125 16.667969 12.078125 17.222656 11.460938 18.171875 C 10.933594 18.980469 10.738281 19.234375 10.421875 19.53125 C 9.878906 20.035156 9.410156 20.183594 8.234375 20.207031 C 7.644531 20.222656 7.257812 20.199219 6.8125 20.121094 C 5.578125 19.898438 4.320312 19.398438 3.496094 18.800781 C 2.867188 18.34375 2.507812 17.8125 2.421875 17.226562 C 2.371094 16.875 2.339844 15.933594 2.375 15.882812 C 2.390625 15.859375 2.464844 15.910156 2.679688 16.078125 C 2.839844 16.199219 3.058594 16.355469 3.171875 16.429688 C 3.929688 16.910156 5.152344 17.398438 6.246094 17.652344 C 6.910156 17.808594 7.269531 17.839844 8.21875 17.820312 C 9.28125 17.804688 9.71875 17.722656 10.339844 17.433594 C 10.621094 17.300781 10.859375 17.121094 11.175781 16.808594 C 11.546875 16.4375 11.796875 16.117188 12.148438 15.554688 C 12.4375 15.097656 12.644531 14.832031 12.960938 14.519531 C 13.320312 14.160156 13.667969 13.910156 14.269531 13.5625 C 14.847656 13.230469 15.132812 13.058594 15.355469 12.898438 C 15.5 12.792969 15.574219 12.75 15.589844 12.765625 C 15.601562 12.777344 15.609375 12.984375 15.609375 13.320312 Z M 15.609375 13.320312 "/>
</g>
</svg>
