<svg width="16" height="16" viewBox="0 0 16 16" fill="none" xmlns="http://www.w3.org/2000/svg">
    <path d="M0.285706 5.40847H5.43837V10.5611H0.285706V5.40847Z" fill="white"/>
    <path d="M0.285706 5.40847H5.43837V10.5611H0.285706V5.40847Z" fill="#99E1F4"/>
    <path d="M5.43837 10.5611L10.5611 10.5616V15.6844H5.43837V10.5611Z" fill="white"/>
    <path d="M5.43837 10.5611L10.5611 10.5616V15.6844H5.43837V10.5611Z" fill="#99E1F4"/>
    <path d="M0.285706 15.6846L5.43837 15.6844V15.7143H0.285706V15.6846ZM0.285706 10.5619H5.43837V15.6844L0.285706 15.6846V10.5619Z" fill="#1A82E2"/>
    <path d="M5.43837 0.285706H10.5611V5.40847H5.43837V0.285706ZM10.5616 5.43837H15.7143V10.5611H10.5616V5.43837Z" fill="#00B3E3"/>
    <path d="M5.43837 10.5611L10.5611 10.5616V5.40847H5.43837V10.5611Z" fill="#009DD9"/>
    <path d="M10.5611 0.285706H15.7143V5.40847H10.5611V0.285706Z" fill="#1A82E2"/>
    <path d="M10.5611 5.40847H15.7143V5.43837H10.5616L10.5611 5.40847Z" fill="#1A82E2"/>
</svg>